<?xml version="1.0" encoding="UTF-8" standalone="no"?>
<!-- Created with Inkscape (http://www.inkscape.org/) -->

<svg
   xmlns:dc="http://purl.org/dc/elements/1.1/"
   xmlns:cc="http://creativecommons.org/ns#"
   xmlns:rdf="http://www.w3.org/1999/02/22-rdf-syntax-ns#"
   xmlns:svg="http://www.w3.org/2000/svg"
   xmlns="http://www.w3.org/2000/svg"
   xmlns:sodipodi="http://sodipodi.sourceforge.net/DTD/sodipodi-0.dtd"
   xmlns:inkscape="http://www.inkscape.org/namespaces/inkscape"
   version="1.1"
   id="svg4285"
   inkscape:version="0.91+devel r14862 custom"
   width="1000"
   height="1000"
   viewBox="0 0 1000 1000"
   sodipodi:docname="logo_new.svg">
  <metadata
     id="metadata4291">
    <rdf:RDF>
      <cc:Work
         rdf:about="">
        <dc:format>image/svg+xml</dc:format>
        <dc:type
           rdf:resource="http://purl.org/dc/dcmitype/StillImage" />
        <dc:title></dc:title>
      </cc:Work>
    </rdf:RDF>
  </metadata>
  <defs
     id="defs4289" />
  <sodipodi:namedview
     pagecolor="#ffffff"
     bordercolor="#666666"
     borderopacity="1"
     objecttolerance="10"
     gridtolerance="10"
     guidetolerance="10"
     inkscape:pageopacity="0"
     inkscape:pageshadow="2"
     inkscape:window-width="1920"
     inkscape:window-height="1016"
     inkscape:document-units="px"
     id="namedview4287"
     showgrid="false"
     inkscape:zoom="0.35355339"
     inkscape:cx="1349.2353"
     inkscape:cy="395.12418"
     inkscape:window-x="0"
     inkscape:window-y="27"
     inkscape:window-maximized="1"
     inkscape:current-layer="svg4285"
     inkscape:snap-to-guides="true"
     showborder="true"
     borderlayer="true"
     inkscape:showpageshadow="false" />
  <rect
     style="fill:#c9e9ec;fill-opacity:1;fill-rule:nonzero;stroke:none;stroke-width:7.00669289;stroke-linecap:round;stroke-linejoin:round;stroke-miterlimit:4;stroke-dasharray:none;stroke-opacity:1"
     id="rect4306"
     width="962.711"
     height="962.711"
     x="18.644501"
     y="18.644501"
     ry="50.799458" />
  <g
     id="g4318"
     transform="matrix(3.5044502,0,0,3.5044502,-1.6600117,-1.0347021)">
    <path
       sodipodi:nodetypes="ccccccccccccccccccccccc"
       inkscape:connector-curvature="0"
       id="path4297"
       d="M 121.43571,55.151917 C 112.75735,45.914898 106.04389,35.498939 94.503434,27.979174 78.728632,15.778207 75.908504,27.962509 70.456758,35.193176 63.393465,53.325084 63.44091,72.247073 61.799956,90.981463 21.950845,141.18676 43.471942,174.26761 49.776618,185.00397 c 17.954851,19.21919 35.909701,20.69034 53.864552,25.249 -1.06765,14.16407 -9.078502,28.05041 4.56887,42.80308 16.86408,12.68679 34.48665,11.44482 53.62408,9.61867 13.77969,-2.35987 23.48748,-6.61996 27.65368,-13.46613 6.36994,4.26365 22.20369,5.23958 35.58908,0.48093 13.24492,-7.6687 16.93104,-17.50986 16.11127,-28.37508 -1.03663,-9.06297 -4.43133,-15.76787 -8.6568,-21.642 -12.92972,-12.44524 -28.51017,-2.46276 -19.23734,13.7066 8.44885,12.15983 6.545,19.1433 0.96187,24.28714 -12.55289,6.58649 -16.44265,2.93475 -22.36341,1.68327 -0.54085,-11.78287 -4.37901,-23.56574 -15.14941,-35.34861 19.59312,-6.51853 38.06796,-15.89489 51.94082,-37.03188 6.17661,-11.08935 14.87262,-27.35572 1.92374,-57.23109 -3.39928,-8.25603 -9.18556,-16.512051 -17.07314,-24.768076 -0.80976,-16.041396 -2.43908,-31.965711 -7.69494,-47.37195 -4.66541,-11.202043 -8.92378,-23.269276 -26.69181,-8.89727 -7.85525,7.062109 -15.71049,15.170932 -23.56574,26.69181 -12.02389,-2.647359 -23.40488,-2.723065 -34.14628,-0.240467 z"
       style="fill:#000000;fill-opacity:1;fill-rule:evenodd;stroke:#000000;stroke-width:1px;stroke-linecap:butt;stroke-linejoin:miter;stroke-opacity:1" />
    <path
       style="fill:#ffffff;fill-opacity:1;fill-rule:evenodd;stroke:#ffffff;stroke-width:1px;stroke-linecap:butt;stroke-linejoin:miter;stroke-opacity:1"
       d="m 126.48551,144.60555 c 3.87702,-14.82333 -1.56617,-30.03148 -6.97353,-37.51281 -17.18433,-22.901911 -39.254985,-10.806477 -48.574288,4.3284 -6.370434,14.8788 -9.272895,31.89434 3.607002,50.25755 6.85563,6.78766 13.718222,13.56737 29.336946,10.34007 -7.401285,-7.99004 -12.286976,-21.22131 -6.011672,-37.51281 1.764475,-4.51958 8.805682,-16.38381 20.920602,-6.25214 5.00688,5.93896 5.61953,10.99907 7.69494,16.35174 z"
       id="path4305"
       inkscape:connector-curvature="0"
       sodipodi:nodetypes="cccccccc" />
    <path
       sodipodi:nodetypes="cccccccc"
       inkscape:connector-curvature="0"
       id="path4309"
       d="m 197.75148,169.86563 c -8.28373,-8.39706 -14.25309,-28.21887 -4.25089,-42.16884 5.84454,-8.37033 12.63512,-8.53851 18.53389,-3.23068 4.25876,3.88662 6.50921,8.52635 7.1415,13.77289 1.62522,-14.5174 -2.26547,-22.68409 -5.2711,-28.39596 -18.00307,-27.371127 -41.14607,-15.914897 -49.31035,-2.55053 -7.30449,12.91614 -12.65972,33.39098 4.25089,56.11177 7.32265,6.49573 16.47649,10.99113 28.90606,6.46135 z"
       style="fill:#ffffff;fill-opacity:1;fill-rule:evenodd;stroke:#ffffff;stroke-width:1px;stroke-linecap:butt;stroke-linejoin:miter;stroke-opacity:1" />
    <path
       sodipodi:nodetypes="cccc"
       inkscape:connector-curvature="0"
       id="path4311"
       d="m 201.83234,138.40904 c -5.06661,-0.84769 -5.24422,-5.33207 -4.761,-10.37218 1.07592,-5.20871 8.01784,-9.0139 9.86207,0 0.36732,4.2616 0.39714,8.99053 -5.10107,10.37218 z"
       style="fill:#ffffff;fill-opacity:1;fill-rule:evenodd;stroke:#000000;stroke-width:1px;stroke-linecap:butt;stroke-linejoin:miter;stroke-opacity:1" />
    <path
       sodipodi:nodetypes="cc"
       inkscape:connector-curvature="0"
       id="path4313"
       d="m 13.299766,164.33423 c 14.93512,-7.94359 30.657447,-6.17721 43.582971,-3.96965"
       style="fill:none;fill-rule:evenodd;stroke:#000000;stroke-width:2;stroke-linecap:round;stroke-linejoin:round;stroke-miterlimit:4;stroke-dasharray:none;stroke-opacity:1" />
    <path
       sodipodi:nodetypes="cc"
       inkscape:connector-curvature="0"
       id="path4315"
       d="m 61.695066,174.98424 c -14.044907,7.86193 -24.550541,17.24069 -31.996581,27.93071"
       style="fill:none;fill-rule:evenodd;stroke:#000003;stroke-width:2;stroke-linecap:round;stroke-linejoin:miter;stroke-miterlimit:4;stroke-dasharray:none;stroke-opacity:1" />
    <path
       sodipodi:nodetypes="ccccc"
       inkscape:connector-curvature="0"
       id="path4319"
       d="m 108.60846,125.6791 c -3.98597,0.45327 -5.43283,5.21721 -5.3778,8.90936 0.51194,3.14094 1.69303,6.53238 5.31945,7.7412 3.48274,-0.13635 4.93019,-5.37205 5.46031,-8.70307 -0.15802,-3.00593 -0.44589,-7.19715 -5.40196,-7.94749 z"
       style="fill:#fffffe;fill-opacity:1;fill-rule:evenodd;stroke:#000000;stroke-width:1px;stroke-linecap:butt;stroke-linejoin:miter;stroke-opacity:1" />
    <path
       sodipodi:nodetypes="cc"
       inkscape:connector-curvature="0"
       id="path4321"
       d="m 221.5,162 c 18.47967,6.26853 26.58424,17.03294 35.375,27.5"
       style="fill:none;fill-rule:evenodd;stroke:#000007;stroke-width:2;stroke-linecap:round;stroke-linejoin:miter;stroke-miterlimit:4;stroke-dasharray:none;stroke-opacity:1" />
    <path
       sodipodi:nodetypes="cc"
       inkscape:connector-curvature="0"
       id="path4325"
       d="m 273,150.875 c -4.50898,-3.1785 -23.34367,-8.7552 -45.125,-4.125"
       style="fill:none;fill-rule:evenodd;stroke:#000000;stroke-width:2;stroke-linecap:round;stroke-linejoin:miter;stroke-miterlimit:4;stroke-dasharray:none;stroke-opacity:1" />
    <path
       sodipodi:nodetypes="ccccccccc"
       inkscape:connector-curvature="0"
       id="path4329"
       d="m 150.6241,175.27149 c -9.78561,-10.39278 -20.49549,1.06584 -25.80291,4.19458 -8.68741,4.84754 -11.66622,-1.23407 -9.03231,-5.89467 -3.87814,6.39472 -4.77777,12.79807 0.65903,19.20581 13.51019,11.29338 28.26042,5.67428 33.69771,-1.22695 0.46295,5.13487 15.43215,12.44174 25.43517,-1.12293 2.62929,-3.41481 4.43613,-10.44706 -0.59498,-18.59902 0.79208,4.20215 -0.20192,8.43255 -5.82491,6.81865 -4.60622,-2.2274 -3.34494,-12.90694 -18.5368,-3.37547 z"
       style="fill:#ffffff;fill-opacity:1;fill-rule:evenodd;stroke:#ffffff;stroke-width:1.08099377px;stroke-linecap:butt;stroke-linejoin:miter;stroke-opacity:1" />
  </g>
</svg>
